STARTFONT 2.1
FONT -Misc-OldSchoolConsole-Medium-R-Normal--20-200-75-75-C-100-ISO8859-1
SIZE 20 75 75
FONTBOUNDINGBOX 10 20 0 -5
STARTPROPERTIES 23
FONTNAME_REGISTRY ""
FOUNDRY "Misc"
FAMILY_NAME "Fixed"
WEIGHT_NAME "Medium"
SLANT "R"
SETWIDTH_NAME "Normal"
ADD_STYLE_NAME ""
PIXEL_SIZE 20
POINT_SIZE 200
RESOLUTION_X 75
RESOLUTION_Y 75
SPACING "C"
AVERAGE_WIDTH 100
CHARSET_REGISTRY "ISO8859"
CHARSET_ENCODING "1"
COPYRIGHT "Copyright 1989-1991 Darren Stuart Embry"
WEIGHT 10
RESOLUTION 103
X_HEIGHT 15
QUAD_WIDTH 10
FONT_ASCENT 15
FONT_DESCENT 5
_XMBDFED_INFO "Edited with xmbdfed 4.5."
ENDPROPERTIES
CHARS 224
STARTCHAR char0
ENCODING 0
SWIDTH 480 0
DWIDTH 10 0
BBX 10 20 0 -5
BITMAP
0000
0000
0000
0000
0000
0000
0000
0000
0000
0000
0000
0000
0000
0000
0000
0000
0000
0000
0000
0000
ENDCHAR
STARTCHAR char1
ENCODING 1
SWIDTH 480 0
DWIDTH 10 0
BBX 10 20 0 -5
BITMAP
0000
0000
0000
0000
0000
0000
3F00
0000
7F80
0000
7F80
0000
3F00
0000
0000
0000
0000
0000
0000
0000
ENDCHAR
STARTCHAR char2
ENCODING 2
SWIDTH 480 0
DWIDTH 10 0
BBX 10 20 0 -5
BITMAP
1980
0000
6600
0000
1980
0000
6600
0000
1980
0000
6600
0000
1980
0000
6600
0000
1980
0000
6600
0000
ENDCHAR
STARTCHAR char3
ENCODING 3
SWIDTH 480 0
DWIDTH 10 0
BBX 10 20 0 -5
BITMAP
6600
0000
7E00
0000
6600
0000
6600
0000
0000
0000
1F80
0000
0600
0000
0600
0000
0600
0000
0000
0000
ENDCHAR
STARTCHAR char4
ENCODING 4
SWIDTH 480 0
DWIDTH 10 0
BBX 10 20 0 -5
BITMAP
7E00
0000
6000
0000
7800
0000
6000
0000
0000
0000
1F80
0000
1800
0000
1E00
0000
1800
0000
0000
0000
ENDCHAR
STARTCHAR char5
ENCODING 5
SWIDTH 480 0
DWIDTH 10 0
BBX 10 20 0 -5
BITMAP
3E00
0000
6000
0000
6000
0000
3E00
0000
0000
0000
1F00
0000
1980
0000
1F00
0000
1980
0000
0000
0000
ENDCHAR
STARTCHAR char6
ENCODING 6
SWIDTH 480 0
DWIDTH 10 0
BBX 10 20 0 -5
BITMAP
6000
0000
6000
0000
6000
0000
7E00
0000
0000
0000
1F80
0000
1800
0000
1E00
0000
1800
0000
0000
0000
ENDCHAR
STARTCHAR char7
ENCODING 7
SWIDTH 480 0
DWIDTH 10 0
BBX 10 20 0 -5
BITMAP
1E00
0000
3300
0000
1E00
0000
0000
0000
0000
0000
0000
0000
0000
0000
0000
0000
0000
0000
0000
0000
ENDCHAR
STARTCHAR char8
ENCODING 8
SWIDTH 480 0
DWIDTH 10 0
BBX 10 20 0 -5
BITMAP
0000
0000
0C00
0000
0C00
0000
7F80
0000
0C00
0000
0C00
0000
0000
0000
7F80
0000
0000
0000
0000
0000
ENDCHAR
STARTCHAR char9
ENCODING 9
SWIDTH 480 0
DWIDTH 10 0
BBX 10 20 0 -5
BITMAP
6300
0000
7B00
0000
6F00
0000
6300
0000
0000
0000
1800
0000
1800
0000
1800
0000
1F80
0000
0000
0000
ENDCHAR
STARTCHAR char10
ENCODING 10
SWIDTH 480 0
DWIDTH 10 0
BBX 10 20 0 -5
BITMAP
6600
0000
6600
0000
3C00
0000
1800
0000
0000
0000
1F80
0000
0600
0000
0600
0000
0600
0000
0000
0000
ENDCHAR
STARTCHAR char11
ENCODING 11
SWIDTH 480 0
DWIDTH 10 0
BBX 10 20 0 -5
BITMAP
0C00
0000
0C00
0000
0C00
0000
0C00
0000
FC00
0000
0000
0000
0000
0000
0000
0000
0000
0000
0000
0000
ENDCHAR
STARTCHAR char12
ENCODING 12
SWIDTH 480 0
DWIDTH 10 0
BBX 10 20 0 -5
BITMAP
0000
0000
0000
0000
0000
0000
0000
0000
FC00
0000
0C00
0000
0C00
0000
0C00
0000
0C00
0000
0C00
0000
ENDCHAR
STARTCHAR char13
ENCODING 13
SWIDTH 480 0
DWIDTH 10 0
BBX 10 20 0 -5
BITMAP
0000
0000
0000
0000
0000
0000
0000
0000
0FC0
0000
0C00
0000
0C00
0000
0C00
0000
0C00
0000
0C00
0000
ENDCHAR
STARTCHAR char14
ENCODING 14
SWIDTH 480 0
DWIDTH 10 0
BBX 10 20 0 -5
BITMAP
0C00
0000
0C00
0000
0C00
0000
0C00
0000
0FC0
0000
0000
0000
0000
0000
0000
0000
0000
0000
0000
0000
ENDCHAR
STARTCHAR char15
ENCODING 15
SWIDTH 480 0
DWIDTH 10 0
BBX 10 20 0 -5
BITMAP
0C00
0000
0C00
0000
0C00
0000
0C00
0000
FFC0
0000
0C00
0000
0C00
0000
0C00
0000
0C00
0000
0C00
0000
ENDCHAR
STARTCHAR char16
ENCODING 16
SWIDTH 480 0
DWIDTH 10 0
BBX 10 20 0 -5
BITMAP
FFC0
0000
0000
0000
0000
0000
0000
0000
0000
0000
0000
0000
0000
0000
0000
0000
0000
0000
0000
0000
ENDCHAR
STARTCHAR char17
ENCODING 17
SWIDTH 480 0
DWIDTH 10 0
BBX 10 20 0 -5
BITMAP
0000
0000
0000
0000
FFC0
0000
0000
0000
0000
0000
0000
0000
0000
0000
0000
0000
0000
0000
0000
0000
ENDCHAR
STARTCHAR char18
ENCODING 18
SWIDTH 480 0
DWIDTH 10 0
BBX 10 20 0 -5
BITMAP
0000
0000
0000
0000
0000
0000
0000
0000
FFC0
0000
0000
0000
0000
0000
0000
0000
0000
0000
0000
0000
ENDCHAR
STARTCHAR char19
ENCODING 19
SWIDTH 480 0
DWIDTH 10 0
BBX 10 20 0 -5
BITMAP
0000
0000
0000
0000
0000
0000
0000
0000
0000
0000
0000
0000
FFC0
0000
0000
0000
0000
0000
0000
0000
ENDCHAR
STARTCHAR char20
ENCODING 20
SWIDTH 480 0
DWIDTH 10 0
BBX 10 20 0 -5
BITMAP
0000
0000
0000
0000
0000
0000
0000
0000
0000
0000
0000
0000
0000
0000
0000
0000
FFC0
0000
0000
0000
ENDCHAR
STARTCHAR char21
ENCODING 21
SWIDTH 480 0
DWIDTH 10 0
BBX 10 20 0 -5
BITMAP
0C00
0000
0C00
0000
0C00
0000
0C00
0000
0FC0
0000
0C00
0000
0C00
0000
0C00
0000
0C00
0000
0C00
0000
ENDCHAR
STARTCHAR char22
ENCODING 22
SWIDTH 480 0
DWIDTH 10 0
BBX 10 20 0 -5
BITMAP
0C00
0000
0C00
0000
0C00
0000
0C00
0000
FC00
0000
0C00
0000
0C00
0000
0C00
0000
0C00
0000
0C00
0000
ENDCHAR
STARTCHAR char23
ENCODING 23
SWIDTH 480 0
DWIDTH 10 0
BBX 10 20 0 -5
BITMAP
0C00
0000
0C00
0000
0C00
0000
0C00
0000
FFC0
0000
0000
0000
0000
0000
0000
0000
0000
0000
0000
0000
ENDCHAR
STARTCHAR char24
ENCODING 24
SWIDTH 480 0
DWIDTH 10 0
BBX 10 20 0 -5
BITMAP
0000
0000
0000
0000
0000
0000
0000
0000
FFC0
0000
0C00
0000
0C00
0000
0C00
0000
0C00
0000
0C00
0000
ENDCHAR
STARTCHAR char25
ENCODING 25
SWIDTH 480 0
DWIDTH 10 0
BBX 10 20 0 -5
BITMAP
0C00
0000
0C00
0000
0C00
0000
0C00
0000
0C00
0000
0C00
0000
0C00
0000
0C00
0000
0C00
0000
0C00
0000
ENDCHAR
STARTCHAR char26
ENCODING 26
SWIDTH 480 0
DWIDTH 10 0
BBX 10 20 0 -5
BITMAP
0000
0000
0300
0000
0C00
0000
3000
0000
0C00
0000
0300
0000
0000
0000
7F80
0000
0000
0000
0000
0000
ENDCHAR
STARTCHAR char27
ENCODING 27
SWIDTH 480 0
DWIDTH 10 0
BBX 10 20 0 -5
BITMAP
0000
0000
3000
0000
0C00
0000
0300
0000
0C00
0000
3000
0000
0000
0000
7F80
0000
0000
0000
0000
0000
ENDCHAR
STARTCHAR char28
ENCODING 28
SWIDTH 480 0
DWIDTH 10 0
BBX 10 20 0 -5
BITMAP
0000
0000
0000
0000
0000
0000
3F80
0000
7B00
0000
1B00
0000
3300
0000
3300
0000
0000
0000
0000
0000
ENDCHAR
STARTCHAR char29
ENCODING 29
SWIDTH 480 0
DWIDTH 10 0
BBX 10 20 0 -5
BITMAP
0000
0000
0180
0000
0300
0000
7F80
0000
0C00
0000
7F80
0000
3000
0000
6000
0000
0000
0000
0000
0000
ENDCHAR
STARTCHAR char30
ENCODING 30
SWIDTH 480 0
DWIDTH 10 0
BBX 10 20 0 -5
BITMAP
0000
0000
1E00
0000
3000
0000
7C00
0000
3000
0000
3000
0000
7C00
0000
6380
0000
0000
0000
0000
0000
ENDCHAR
STARTCHAR char31
ENCODING 31
SWIDTH 480 0
DWIDTH 10 0
BBX 10 20 0 -5
BITMAP
0000
0000
0000
0000
0000
0000
0000
0000
0C00
0000
0C00
0000
0000
0000
0000
0000
0000
0000
0000
0000
ENDCHAR
STARTCHAR char32
ENCODING 32
SWIDTH 480 0
DWIDTH 10 0
BBX 10 20 0 -5
BITMAP
0000
0000
0000
0000
0000
0000
0000
0000
0000
0000
0000
0000
0000
0000
0000
0000
0000
0000
0000
0000
ENDCHAR
STARTCHAR char33
ENCODING 33
SWIDTH 480 0
DWIDTH 10 0
BBX 10 20 0 -5
BITMAP
0000
0000
1E00
0000
1E00
0000
0C00
0000
0C00
0000
0000
0000
0C00
0000
0C00
0000
0000
0000
0000
0000
ENDCHAR
STARTCHAR char34
ENCODING 34
SWIDTH 480 0
DWIDTH 10 0
BBX 10 20 0 -5
BITMAP
3300
0000
3300
0000
3300
0000
0000
0000
0000
0000
0000
0000
0000
0000
0000
0000
0000
0000
0000
0000
ENDCHAR
STARTCHAR char35
ENCODING 35
SWIDTH 480 0
DWIDTH 10 0
BBX 10 20 0 -5
BITMAP
0000
0000
3300
0000
3300
0000
7F80
0000
3300
0000
7F80
0000
3300
0000
3300
0000
0000
0000
0000
0000
ENDCHAR
STARTCHAR char36
ENCODING 36
SWIDTH 480 0
DWIDTH 10 0
BBX 10 20 0 -5
BITMAP
0000
0000
0C00
0000
3F80
0000
6C00
0000
3F00
0000
0D80
0000
7F00
0000
0C00
0000
0000
0000
0000
0000
ENDCHAR
STARTCHAR char37
ENCODING 37
SWIDTH 480 0
DWIDTH 10 0
BBX 10 20 0 -5
BITMAP
0000
0000
7180
0000
7300
0000
0600
0000
0C00
0000
1800
0000
3380
0000
6380
0000
0000
0000
0000
0000
ENDCHAR
STARTCHAR char38
ENCODING 38
SWIDTH 480 0
DWIDTH 10 0
BBX 10 20 0 -5
BITMAP
0000
0000
1C00
0000
3600
0000
1C00
0000
3D80
0000
6700
0000
6700
0000
3D80
0000
0000
0000
0000
0000
ENDCHAR
STARTCHAR char39
ENCODING 39
SWIDTH 480 0
DWIDTH 10 0
BBX 10 20 0 -5
BITMAP
0600
0000
0C00
0000
1800
0000
0000
0000
0000
0000
0000
0000
0000
0000
0000
0000
0000
0000
0000
0000
ENDCHAR
STARTCHAR char40
ENCODING 40
SWIDTH 480 0
DWIDTH 10 0
BBX 10 20 0 -5
BITMAP
0000
0000
0600
0000
0C00
0000
1800
0000
1800
0000
1800
0000
0C00
0000
0600
0000
0000
0000
0000
0000
ENDCHAR
STARTCHAR char41
ENCODING 41
SWIDTH 480 0
DWIDTH 10 0
BBX 10 20 0 -5
BITMAP
0000
0000
1800
0000
0C00
0000
0600
0000
0600
0000
0600
0000
0C00
0000
1800
0000
0000
0000
0000
0000
ENDCHAR
STARTCHAR char42
ENCODING 42
SWIDTH 480 0
DWIDTH 10 0
BBX 10 20 0 -5
BITMAP
0000
0000
0000
0000
3300
0000
1E00
0000
7F80
0000
1E00
0000
3300
0000
0000
0000
0000
0000
0000
0000
ENDCHAR
STARTCHAR char43
ENCODING 43
SWIDTH 480 0
DWIDTH 10 0
BBX 10 20 0 -5
BITMAP
0000
0000
0000
0000
0C00
0000
0C00
0000
7F80
0000
0C00
0000
0C00
0000
0000
0000
0000
0000
0000
0000
ENDCHAR
STARTCHAR char44
ENCODING 44
SWIDTH 480 0
DWIDTH 10 0
BBX 10 20 0 -5
BITMAP
0000
0000
0000
0000
0000
0000
0000
0000
0000
0000
0000
0000
0600
0000
0C00
0000
1800
0000
0000
0000
ENDCHAR
STARTCHAR char45
ENCODING 45
SWIDTH 480 0
DWIDTH 10 0
BBX 10 20 0 -5
BITMAP
0000
0000
0000
0000
0000
0000
0000
0000
7F80
0000
0000
0000
0000
0000
0000
0000
0000
0000
0000
0000
ENDCHAR
STARTCHAR char46
ENCODING 46
SWIDTH 480 0
DWIDTH 10 0
BBX 10 20 0 -5
BITMAP
0000
0000
0000
0000
0000
0000
0000
0000
0000
0000
0000
0000
0C00
0000
0C00
0000
0000
0000
0000
0000
ENDCHAR
STARTCHAR char47
ENCODING 47
SWIDTH 480 0
DWIDTH 10 0
BBX 10 20 0 -5
BITMAP
0000
0000
0180
0000
0300
0000
0600
0000
0C00
0000
1800
0000
3000
0000
6000
0000
0000
0000
0000
0000
ENDCHAR
STARTCHAR char48
ENCODING 48
SWIDTH 480 0
DWIDTH 10 0
BBX 10 20 0 -5
BITMAP
0000
0000
1E00
0000
3300
0000
6780
0000
6D80
0000
7980
0000
3300
0000
1E00
0000
0000
0000
0000
0000
ENDCHAR
STARTCHAR char49
ENCODING 49
SWIDTH 480 0
DWIDTH 10 0
BBX 10 20 0 -5
BITMAP
0000
0000
0C00
0000
1C00
0000
3C00
0000
0C00
0000
0C00
0000
0C00
0000
3F00
0000
0000
0000
0000
0000
ENDCHAR
STARTCHAR char50
ENCODING 50
SWIDTH 480 0
DWIDTH 10 0
BBX 10 20 0 -5
BITMAP
0000
0000
3F00
0000
6180
0000
0180
0000
0F00
0000
3800
0000
6000
0000
7F80
0000
0000
0000
0000
0000
ENDCHAR
STARTCHAR char51
ENCODING 51
SWIDTH 480 0
DWIDTH 10 0
BBX 10 20 0 -5
BITMAP
0000
0000
3F00
0000
6180
0000
0180
0000
0F00
0000
0180
0000
6180
0000
3F00
0000
0000
0000
0000
0000
ENDCHAR
STARTCHAR char52
ENCODING 52
SWIDTH 480 0
DWIDTH 10 0
BBX 10 20 0 -5
BITMAP
0000
0000
0700
0000
0F00
0000
1B00
0000
3300
0000
7F80
0000
0300
0000
0300
0000
0000
0000
0000
0000
ENDCHAR
STARTCHAR char53
ENCODING 53
SWIDTH 480 0
DWIDTH 10 0
BBX 10 20 0 -5
BITMAP
0000
0000
7F80
0000
6000
0000
7F00
0000
0180
0000
0180
0000
6180
0000
3F00
0000
0000
0000
0000
0000
ENDCHAR
STARTCHAR char54
ENCODING 54
SWIDTH 480 0
DWIDTH 10 0
BBX 10 20 0 -5
BITMAP
0000
0000
1F00
0000
3000
0000
6000
0000
7F00
0000
6180
0000
6180
0000
3F00
0000
0000
0000
0000
0000
ENDCHAR
STARTCHAR char55
ENCODING 55
SWIDTH 480 0
DWIDTH 10 0
BBX 10 20 0 -5
BITMAP
0000
0000
7F80
0000
0180
0000
0300
0000
0600
0000
0C00
0000
1800
0000
1800
0000
0000
0000
0000
0000
ENDCHAR
STARTCHAR char56
ENCODING 56
SWIDTH 480 0
DWIDTH 10 0
BBX 10 20 0 -5
BITMAP
0000
0000
3F00
0000
6180
0000
6180
0000
3F00
0000
6180
0000
6180
0000
3F00
0000
0000
0000
0000
0000
ENDCHAR
STARTCHAR char57
ENCODING 57
SWIDTH 480 0
DWIDTH 10 0
BBX 10 20 0 -5
BITMAP
0000
0000
3F00
0000
6180
0000
6180
0000
3F80
0000
0180
0000
0300
0000
3E00
0000
0000
0000
0000
0000
ENDCHAR
STARTCHAR char58
ENCODING 58
SWIDTH 480 0
DWIDTH 10 0
BBX 10 20 0 -5
BITMAP
0000
0000
0000
0000
0C00
0000
0C00
0000
0000
0000
0000
0000
0C00
0000
0C00
0000
0000
0000
0000
0000
ENDCHAR
STARTCHAR char59
ENCODING 59
SWIDTH 480 0
DWIDTH 10 0
BBX 10 20 0 -5
BITMAP
0000
0000
0000
0000
0C00
0000
0C00
0000
0000
0000
0000
0000
0600
0000
0C00
0000
1800
0000
0000
0000
ENDCHAR
STARTCHAR char60
ENCODING 60
SWIDTH 480 0
DWIDTH 10 0
BBX 10 20 0 -5
BITMAP
0000
0000
0180
0000
0600
0000
1800
0000
6000
0000
1800
0000
0600
0000
0180
0000
0000
0000
0000
0000
ENDCHAR
STARTCHAR char61
ENCODING 61
SWIDTH 480 0
DWIDTH 10 0
BBX 10 20 0 -5
BITMAP
0000
0000
0000
0000
0000
0000
7F80
0000
0000
0000
7F80
0000
0000
0000
0000
0000
0000
0000
0000
0000
ENDCHAR
STARTCHAR char62
ENCODING 62
SWIDTH 480 0
DWIDTH 10 0
BBX 10 20 0 -5
BITMAP
0000
0000
6000
0000
1800
0000
0600
0000
0180
0000
0600
0000
1800
0000
6000
0000
0000
0000
0000
0000
ENDCHAR
STARTCHAR char63
ENCODING 63
SWIDTH 480 0
DWIDTH 10 0
BBX 10 20 0 -5
BITMAP
0000
0000
3F00
0000
6180
0000
0700
0000
0C00
0000
0000
0000
0C00
0000
0C00
0000
0000
0000
0000
0000
ENDCHAR
STARTCHAR char64
ENCODING 64
SWIDTH 480 0
DWIDTH 10 0
BBX 10 20 0 -5
BITMAP
0000
0000
3F00
0000
6180
0000
6780
0000
6D80
0000
6780
0000
6000
0000
3F00
0000
0000
0000
0000
0000
ENDCHAR
STARTCHAR char65
ENCODING 65
SWIDTH 480 0
DWIDTH 10 0
BBX 10 20 0 -5
BITMAP
0000
0000
0C00
0000
1E00
0000
3300
0000
6180
0000
7F80
0000
6180
0000
6180
0000
0000
0000
0000
0000
ENDCHAR
STARTCHAR char66
ENCODING 66
SWIDTH 480 0
DWIDTH 10 0
BBX 10 20 0 -5
BITMAP
0000
0000
7F00
0000
6180
0000
6180
0000
7F00
0000
6180
0000
6180
0000
7F00
0000
0000
0000
0000
0000
ENDCHAR
STARTCHAR char67
ENCODING 67
SWIDTH 480 0
DWIDTH 10 0
BBX 10 20 0 -5
BITMAP
0000
0000
3F00
0000
6180
0000
6000
0000
6000
0000
6000
0000
6180
0000
3F00
0000
0000
0000
0000
0000
ENDCHAR
STARTCHAR char68
ENCODING 68
SWIDTH 480 0
DWIDTH 10 0
BBX 10 20 0 -5
BITMAP
0000
0000
7E00
0000
6300
0000
6180
0000
6180
0000
6180
0000
6300
0000
7E00
0000
0000
0000
0000
0000
ENDCHAR
STARTCHAR char69
ENCODING 69
SWIDTH 480 0
DWIDTH 10 0
BBX 10 20 0 -5
BITMAP
0000
0000
7F80
0000
6000
0000
6000
0000
7E00
0000
6000
0000
6000
0000
7F80
0000
0000
0000
0000
0000
ENDCHAR
STARTCHAR char70
ENCODING 70
SWIDTH 480 0
DWIDTH 10 0
BBX 10 20 0 -5
BITMAP
0000
0000
7F80
0000
6000
0000
6000
0000
7E00
0000
6000
0000
6000
0000
6000
0000
0000
0000
0000
0000
ENDCHAR
STARTCHAR char71
ENCODING 71
SWIDTH 480 0
DWIDTH 10 0
BBX 10 20 0 -5
BITMAP
0000
0000
3F00
0000
6180
0000
6000
0000
6780
0000
6180
0000
6380
0000
3D80
0000
0000
0000
0000
0000
ENDCHAR
STARTCHAR char72
ENCODING 72
SWIDTH 480 0
DWIDTH 10 0
BBX 10 20 0 -5
BITMAP
0000
0000
6180
0000
6180
0000
6180
0000
7F80
0000
6180
0000
6180
0000
6180
0000
0000
0000
0000
0000
ENDCHAR
STARTCHAR char73
ENCODING 73
SWIDTH 480 0
DWIDTH 10 0
BBX 10 20 0 -5
BITMAP
0000
0000
3F00
0000
0C00
0000
0C00
0000
0C00
0000
0C00
0000
0C00
0000
3F00
0000
0000
0000
0000
0000
ENDCHAR
STARTCHAR char74
ENCODING 74
SWIDTH 480 0
DWIDTH 10 0
BBX 10 20 0 -5
BITMAP
0000
0000
0180
0000
0180
0000
0180
0000
0180
0000
0180
0000
6180
0000
3F00
0000
0000
0000
0000
0000
ENDCHAR
STARTCHAR char75
ENCODING 75
SWIDTH 480 0
DWIDTH 10 0
BBX 10 20 0 -5
BITMAP
0000
0000
6180
0000
6300
0000
6600
0000
7C00
0000
6600
0000
6300
0000
6180
0000
0000
0000
0000
0000
ENDCHAR
STARTCHAR char76
ENCODING 76
SWIDTH 480 0
DWIDTH 10 0
BBX 10 20 0 -5
BITMAP
0000
0000
6000
0000
6000
0000
6000
0000
6000
0000
6000
0000
6000
0000
7F80
0000
0000
0000
0000
0000
ENDCHAR
STARTCHAR char77
ENCODING 77
SWIDTH 480 0
DWIDTH 10 0
BBX 10 20 0 -5
BITMAP
0000
0000
6180
0000
7380
0000
7F80
0000
6D80
0000
6180
0000
6180
0000
6180
0000
0000
0000
0000
0000
ENDCHAR
STARTCHAR char78
ENCODING 78
SWIDTH 480 0
DWIDTH 10 0
BBX 10 20 0 -5
BITMAP
0000
0000
6180
0000
7180
0000
7980
0000
6D80
0000
6780
0000
6380
0000
6180
0000
0000
0000
0000
0000
ENDCHAR
STARTCHAR char79
ENCODING 79
SWIDTH 480 0
DWIDTH 10 0
BBX 10 20 0 -5
BITMAP
0000
0000
3F00
0000
6180
0000
6180
0000
6180
0000
6180
0000
6180
0000
3F00
0000
0000
0000
0000
0000
ENDCHAR
STARTCHAR char80
ENCODING 80
SWIDTH 480 0
DWIDTH 10 0
BBX 10 20 0 -5
BITMAP
0000
0000
7F00
0000
6180
0000
6180
0000
7F00
0000
6000
0000
6000
0000
6000
0000
0000
0000
0000
0000
ENDCHAR
STARTCHAR char81
ENCODING 81
SWIDTH 480 0
DWIDTH 10 0
BBX 10 20 0 -5
BITMAP
0000
0000
3F00
0000
6180
0000
6180
0000
6180
0000
6D80
0000
6780
0000
3F00
0000
0180
0000
0000
0000
ENDCHAR
STARTCHAR char82
ENCODING 82
SWIDTH 480 0
DWIDTH 10 0
BBX 10 20 0 -5
BITMAP
0000
0000
7F00
0000
6180
0000
6180
0000
7F00
0000
6600
0000
6300
0000
6180
0000
0000
0000
0000
0000
ENDCHAR
STARTCHAR char83
ENCODING 83
SWIDTH 480 0
DWIDTH 10 0
BBX 10 20 0 -5
BITMAP
0000
0000
3F00
0000
6180
0000
6000
0000
3F00
0000
0180
0000
6180
0000
3F00
0000
0000
0000
0000
0000
ENDCHAR
STARTCHAR char84
ENCODING 84
SWIDTH 480 0
DWIDTH 10 0
BBX 10 20 0 -5
BITMAP
0000
0000
7F80
0000
0C00
0000
0C00
0000
0C00
0000
0C00
0000
0C00
0000
0C00
0000
0000
0000
0000
0000
ENDCHAR
STARTCHAR char85
ENCODING 85
SWIDTH 480 0
DWIDTH 10 0
BBX 10 20 0 -5
BITMAP
0000
0000
6180
0000
6180
0000
6180
0000
6180
0000
6180
0000
6180
0000
3F00
0000
0000
0000
0000
0000
ENDCHAR
STARTCHAR char86
ENCODING 86
SWIDTH 480 0
DWIDTH 10 0
BBX 10 20 0 -5
BITMAP
0000
0000
6180
0000
6180
0000
3300
0000
3300
0000
1E00
0000
0C00
0000
0C00
0000
0000
0000
0000
0000
ENDCHAR
STARTCHAR char87
ENCODING 87
SWIDTH 480 0
DWIDTH 10 0
BBX 10 20 0 -5
BITMAP
0000
0000
6180
0000
6180
0000
6180
0000
6D80
0000
6D80
0000
7F80
0000
3300
0000
0000
0000
0000
0000
ENDCHAR
STARTCHAR char88
ENCODING 88
SWIDTH 480 0
DWIDTH 10 0
BBX 10 20 0 -5
BITMAP
0000
0000
6180
0000
3300
0000
1E00
0000
0C00
0000
1E00
0000
3300
0000
6180
0000
0000
0000
0000
0000
ENDCHAR
STARTCHAR char89
ENCODING 89
SWIDTH 480 0
DWIDTH 10 0
BBX 10 20 0 -5
BITMAP
0000
0000
6180
0000
3300
0000
1E00
0000
0C00
0000
0C00
0000
0C00
0000
0C00
0000
0000
0000
0000
0000
ENDCHAR
STARTCHAR char90
ENCODING 90
SWIDTH 480 0
DWIDTH 10 0
BBX 10 20 0 -5
BITMAP
0000
0000
7F80
0000
0300
0000
0600
0000
0C00
0000
1800
0000
3000
0000
7F80
0000
0000
0000
0000
0000
ENDCHAR
STARTCHAR char91
ENCODING 91
SWIDTH 480 0
DWIDTH 10 0
BBX 10 20 0 -5
BITMAP
0000
0000
3F00
0000
3000
0000
3000
0000
3000
0000
3000
0000
3000
0000
3F00
0000
0000
0000
0000
0000
ENDCHAR
STARTCHAR char92
ENCODING 92
SWIDTH 480 0
DWIDTH 10 0
BBX 10 20 0 -5
BITMAP
0000
0000
6000
0000
3000
0000
1800
0000
0C00
0000
0600
0000
0300
0000
0180
0000
0000
0000
0000
0000
ENDCHAR
STARTCHAR char93
ENCODING 93
SWIDTH 480 0
DWIDTH 10 0
BBX 10 20 0 -5
BITMAP
0000
0000
3F00
0000
0300
0000
0300
0000
0300
0000
0300
0000
0300
0000
3F00
0000
0000
0000
0000
0000
ENDCHAR
STARTCHAR char94
ENCODING 94
SWIDTH 480 0
DWIDTH 10 0
BBX 10 20 0 -5
BITMAP
0C00
0000
1E00
0000
3300
0000
6180
0000
0000
0000
0000
0000
0000
0000
0000
0000
0000
0000
0000
0000
ENDCHAR
STARTCHAR char95
ENCODING 95
SWIDTH 480 0
DWIDTH 10 0
BBX 10 20 0 -5
BITMAP
0000
0000
0000
0000
0000
0000
0000
0000
0000
0000
0000
0000
0000
0000
0000
0000
0000
0000
7F80
0000
ENDCHAR
STARTCHAR char96
ENCODING 96
SWIDTH 480 0
DWIDTH 10 0
BBX 10 20 0 -5
BITMAP
1800
0000
0C00
0000
0600
0000
0000
0000
0000
0000
0000
0000
0000
0000
0000
0000
0000
0000
0000
0000
ENDCHAR
STARTCHAR char97
ENCODING 97
SWIDTH 480 0
DWIDTH 10 0
BBX 10 20 0 -5
BITMAP
0000
0000
0000
0000
0000
0000
3F00
0000
0180
0000
3F80
0000
6180
0000
3F80
0000
0000
0000
0000
0000
ENDCHAR
STARTCHAR char98
ENCODING 98
SWIDTH 480 0
DWIDTH 10 0
BBX 10 20 0 -5
BITMAP
0000
0000
6000
0000
6000
0000
6F00
0000
7180
0000
6180
0000
7180
0000
6F00
0000
0000
0000
0000
0000
ENDCHAR
STARTCHAR char99
ENCODING 99
SWIDTH 480 0
DWIDTH 10 0
BBX 10 20 0 -5
BITMAP
0000
0000
0000
0000
0000
0000
3F00
0000
6180
0000
6000
0000
6180
0000
3F00
0000
0000
0000
0000
0000
ENDCHAR
STARTCHAR char100
ENCODING 100
SWIDTH 480 0
DWIDTH 10 0
BBX 10 20 0 -5
BITMAP
0000
0000
0180
0000
0180
0000
3D80
0000
6380
0000
6180
0000
6380
0000
3D80
0000
0000
0000
0000
0000
ENDCHAR
STARTCHAR char101
ENCODING 101
SWIDTH 480 0
DWIDTH 10 0
BBX 10 20 0 -5
BITMAP
0000
0000
0000
0000
0000
0000
3F00
0000
6180
0000
7F80
0000
6000
0000
3F00
0000
0000
0000
0000
0000
ENDCHAR
STARTCHAR char102
ENCODING 102
SWIDTH 480 0
DWIDTH 10 0
BBX 10 20 0 -5
BITMAP
0000
0000
0780
0000
0C00
0000
3F00
0000
0C00
0000
0C00
0000
0C00
0000
0C00
0000
0000
0000
0000
0000
ENDCHAR
STARTCHAR char103
ENCODING 103
SWIDTH 480 0
DWIDTH 10 0
BBX 10 20 0 -5
BITMAP
0000
0000
0000
0000
0000
0000
3D80
0000
6380
0000
6180
0000
6380
0000
3D80
0000
0180
0000
1F00
0000
ENDCHAR
STARTCHAR char104
ENCODING 104
SWIDTH 480 0
DWIDTH 10 0
BBX 10 20 0 -5
BITMAP
0000
0000
6000
0000
6000
0000
6F00
0000
7180
0000
6180
0000
6180
0000
6180
0000
0000
0000
0000
0000
ENDCHAR
STARTCHAR char105
ENCODING 105
SWIDTH 480 0
DWIDTH 10 0
BBX 10 20 0 -5
BITMAP
0000
0000
0C00
0000
0000
0000
1C00
0000
0C00
0000
0C00
0000
0C00
0000
3F00
0000
0000
0000
0000
0000
ENDCHAR
STARTCHAR char106
ENCODING 106
SWIDTH 480 0
DWIDTH 10 0
BBX 10 20 0 -5
BITMAP
0000
0000
0600
0000
0000
0000
0E00
0000
0600
0000
0600
0000
0600
0000
0600
0000
0600
0000
3C00
0000
ENDCHAR
STARTCHAR char107
ENCODING 107
SWIDTH 480 0
DWIDTH 10 0
BBX 10 20 0 -5
BITMAP
0000
0000
6000
0000
6000
0000
6180
0000
6600
0000
7800
0000
6600
0000
6180
0000
0000
0000
0000
0000
ENDCHAR
STARTCHAR char108
ENCODING 108
SWIDTH 480 0
DWIDTH 10 0
BBX 10 20 0 -5
BITMAP
0000
0000
1C00
0000
0C00
0000
0C00
0000
0C00
0000
0C00
0000
0C00
0000
3F00
0000
0000
0000
0000
0000
ENDCHAR
STARTCHAR char109
ENCODING 109
SWIDTH 480 0
DWIDTH 10 0
BBX 10 20 0 -5
BITMAP
0000
0000
0000
0000
0000
0000
7700
0000
6D80
0000
6D80
0000
6D80
0000
6D80
0000
0000
0000
0000
0000
ENDCHAR
STARTCHAR char110
ENCODING 110
SWIDTH 480 0
DWIDTH 10 0
BBX 10 20 0 -5
BITMAP
0000
0000
0000
0000
0000
0000
6F00
0000
7180
0000
6180
0000
6180
0000
6180
0000
0000
0000
0000
0000
ENDCHAR
STARTCHAR char111
ENCODING 111
SWIDTH 480 0
DWIDTH 10 0
BBX 10 20 0 -5
BITMAP
0000
0000
0000
0000
0000
0000
3F00
0000
6180
0000
6180
0000
6180
0000
3F00
0000
0000
0000
0000
0000
ENDCHAR
STARTCHAR char112
ENCODING 112
SWIDTH 480 0
DWIDTH 10 0
BBX 10 20 0 -5
BITMAP
0000
0000
0000
0000
0000
0000
6F00
0000
7180
0000
6180
0000
7180
0000
6F00
0000
6000
0000
6000
0000
ENDCHAR
STARTCHAR char113
ENCODING 113
SWIDTH 480 0
DWIDTH 10 0
BBX 10 20 0 -5
BITMAP
0000
0000
0000
0000
0000
0000
3D80
0000
6380
0000
6180
0000
6380
0000
3D80
0000
0180
0000
0180
0000
ENDCHAR
STARTCHAR char114
ENCODING 114
SWIDTH 480 0
DWIDTH 10 0
BBX 10 20 0 -5
BITMAP
0000
0000
0000
0000
0000
0000
6F00
0000
3180
0000
3000
0000
3000
0000
3000
0000
0000
0000
0000
0000
ENDCHAR
STARTCHAR char115
ENCODING 115
SWIDTH 480 0
DWIDTH 10 0
BBX 10 20 0 -5
BITMAP
0000
0000
0000
0000
0000
0000
3F00
0000
6000
0000
3F00
0000
0180
0000
7F00
0000
0000
0000
0000
0000
ENDCHAR
STARTCHAR char116
ENCODING 116
SWIDTH 480 0
DWIDTH 10 0
BBX 10 20 0 -5
BITMAP
0000
0000
0000
0000
1800
0000
7E00
0000
1800
0000
1800
0000
1980
0000
0F00
0000
0000
0000
0000
0000
ENDCHAR
STARTCHAR char117
ENCODING 117
SWIDTH 480 0
DWIDTH 10 0
BBX 10 20 0 -5
BITMAP
0000
0000
0000
0000
0000
0000
6180
0000
6180
0000
6180
0000
6380
0000
3D80
0000
0000
0000
0000
0000
ENDCHAR
STARTCHAR char118
ENCODING 118
SWIDTH 480 0
DWIDTH 10 0
BBX 10 20 0 -5
BITMAP
0000
0000
0000
0000
0000
0000
6180
0000
6180
0000
3300
0000
1E00
0000
0C00
0000
0000
0000
0000
0000
ENDCHAR
STARTCHAR char119
ENCODING 119
SWIDTH 480 0
DWIDTH 10 0
BBX 10 20 0 -5
BITMAP
0000
0000
0000
0000
0000
0000
6180
0000
6180
0000
6D80
0000
7F80
0000
3300
0000
0000
0000
0000
0000
ENDCHAR
STARTCHAR char120
ENCODING 120
SWIDTH 480 0
DWIDTH 10 0
BBX 10 20 0 -5
BITMAP
0000
0000
0000
0000
0000
0000
6180
0000
3300
0000
1E00
0000
3300
0000
6180
0000
0000
0000
0000
0000
ENDCHAR
STARTCHAR char121
ENCODING 121
SWIDTH 480 0
DWIDTH 10 0
BBX 10 20 0 -5
BITMAP
0000
0000
0000
0000
0000
0000
6180
0000
6180
0000
6180
0000
6380
0000
3D80
0000
0180
0000
1F00
0000
ENDCHAR
STARTCHAR char122
ENCODING 122
SWIDTH 480 0
DWIDTH 10 0
BBX 10 20 0 -5
BITMAP
0000
0000
0000
0000
0000
0000
7F80
0000
0700
0000
0C00
0000
3800
0000
7F80
0000
0000
0000
0000
0000
ENDCHAR
STARTCHAR char123
ENCODING 123
SWIDTH 480 0
DWIDTH 10 0
BBX 10 20 0 -5
BITMAP
0000
0000
0700
0000
0C00
0000
0C00
0000
3800
0000
0C00
0000
0C00
0000
0700
0000
0000
0000
0000
0000
ENDCHAR
STARTCHAR char124
ENCODING 124
SWIDTH 480 0
DWIDTH 10 0
BBX 10 20 0 -5
BITMAP
0000
0000
0C00
0000
0C00
0000
0C00
0000
0C00
0000
0C00
0000
0C00
0000
0C00
0000
0C00
0000
0C00
0000
ENDCHAR
STARTCHAR char125
ENCODING 125
SWIDTH 480 0
DWIDTH 10 0
BBX 10 20 0 -5
BITMAP
0000
0000
3800
0000
0C00
0000
0C00
0000
0700
0000
0C00
0000
0C00
0000
3800
0000
0000
0000
0000
0000
ENDCHAR
STARTCHAR char126
ENCODING 126
SWIDTH 480 0
DWIDTH 10 0
BBX 10 20 0 -5
BITMAP
0000
0000
0000
0000
0000
0000
3980
0000
6D80
0000
6700
0000
0000
0000
0000
0000
0000
0000
0000
0000
ENDCHAR
STARTCHAR char127
ENCODING 127
SWIDTH 480 0
DWIDTH 10 0
BBX 10 20 0 -5
BITMAP
0000
0000
0000
0000
0000
0000
0000
0000
0000
0000
0000
0000
0000
0000
0000
0000
0000
0000
0000
0000
ENDCHAR
STARTCHAR char160
ENCODING 160
SWIDTH 480 0
DWIDTH 10 0
BBX 10 20 0 -5
BITMAP
0000
0000
0000
0000
0000
0000
0000
0000
0000
0000
0000
0000
0000
0000
0000
0000
0000
0000
0000
0000
ENDCHAR
STARTCHAR char161
ENCODING 161
SWIDTH 480 0
DWIDTH 10 0
BBX 10 20 0 -5
BITMAP
0000
0000
0C00
0000
0C00
0000
0000
0000
0C00
0000
0C00
0000
1E00
0000
1E00
0000
0000
0000
0000
0000
ENDCHAR
STARTCHAR char162
ENCODING 162
SWIDTH 480 0
DWIDTH 10 0
BBX 10 20 0 -5
BITMAP
0000
0000
0C00
0000
3F80
0000
6C00
0000
6C00
0000
6C00
0000
3F80
0000
0C00
0000
0000
0000
0000
0000
ENDCHAR
STARTCHAR char163
ENCODING 163
SWIDTH 480 0
DWIDTH 10 0
BBX 10 20 0 -5
BITMAP
0000
0000
1E00
0000
3000
0000
7C00
0000
3000
0000
3000
0000
7C00
0000
6380
0000
0000
0000
0000
0000
ENDCHAR
STARTCHAR char164
ENCODING 164
SWIDTH 480 0
DWIDTH 10 0
BBX 10 20 0 -5
BITMAP
0000
0000
6180
0000
3300
0000
3F00
0000
6180
0000
3F00
0000
3300
0000
6180
0000
0000
0000
0000
0000
ENDCHAR
STARTCHAR char165
ENCODING 165
SWIDTH 480 0
DWIDTH 10 0
BBX 10 20 0 -5
BITMAP
0000
0000
6180
0000
3300
0000
7F80
0000
0C00
0000
7F80
0000
0C00
0000
0C00
0000
0000
0000
0000
0000
ENDCHAR
STARTCHAR char166
ENCODING 166
SWIDTH 480 0
DWIDTH 10 0
BBX 10 20 0 -5
BITMAP
0000
0000
0C00
0000
0C00
0000
0C00
0000
0000
0000
0C00
0000
0C00
0000
0C00
0000
0000
0000
0000
0000
ENDCHAR
STARTCHAR char167
ENCODING 167
SWIDTH 480 0
DWIDTH 10 0
BBX 10 20 0 -5
BITMAP
1E00
0000
3300
0000
1800
0000
1C00
0000
3600
0000
1B00
0000
0E00
0000
0600
0000
3300
0000
1E00
0000
ENDCHAR
STARTCHAR char168
ENCODING 168
SWIDTH 480 0
DWIDTH 10 0
BBX 10 20 0 -5
BITMAP
3300
0000
3300
0000
0000
0000
0000
0000
0000
0000
0000
0000
0000
0000
0000
0000
0000
0000
0000
0000
ENDCHAR
STARTCHAR char169
ENCODING 169
SWIDTH 480 0
DWIDTH 10 0
BBX 10 20 0 -5
BITMAP
0000
0000
3F00
0000
6180
0000
CEC0
0000
D8C0
0000
D8C0
0000
CEC0
0000
6180
0000
3F00
0000
0000
0000
ENDCHAR
STARTCHAR char170
ENCODING 170
SWIDTH 480 0
DWIDTH 10 0
BBX 10 20 0 -5
BITMAP
1E00
0000
0300
0000
1F00
0000
3300
0000
1F00
0000
0000
0000
3F00
0000
0000
0000
0000
0000
0000
0000
ENDCHAR
STARTCHAR char171
ENCODING 171
SWIDTH 480 0
DWIDTH 10 0
BBX 10 20 0 -5
BITMAP
0000
0000
0000
0000
0000
0000
1980
0000
3300
0000
6600
0000
3300
0000
1980
0000
0000
0000
0000
0000
ENDCHAR
STARTCHAR char172
ENCODING 172
SWIDTH 480 0
DWIDTH 10 0
BBX 10 20 0 -5
BITMAP
0000
0000
0000
0000
0000
0000
0000
0000
7F80
0000
0180
0000
0180
0000
0000
0000
0000
0000
0000
0000
ENDCHAR
STARTCHAR char173
ENCODING 173
SWIDTH 480 0
DWIDTH 10 0
BBX 10 20 0 -5
BITMAP
0000
0000
0000
0000
0000
0000
0000
0000
1E00
0000
0000
0000
0000
0000
0000
0000
0000
0000
0000
0000
ENDCHAR
STARTCHAR char174
ENCODING 174
SWIDTH 480 0
DWIDTH 10 0
BBX 10 20 0 -5
BITMAP
0000
0000
3F00
0000
6180
0000
DEC0
0000
DBC0
0000
DEC0
0000
DBC0
0000
6180
0000
3F00
0000
0000
0000
ENDCHAR
STARTCHAR char175
ENCODING 175
SWIDTH 480 0
DWIDTH 10 0
BBX 10 20 0 -5
BITMAP
0000
0000
3F00
0000
0000
0000
0000
0000
0000
0000
0000
0000
0000
0000
0000
0000
0000
0000
0000
0000
ENDCHAR
STARTCHAR char176
ENCODING 176
SWIDTH 480 0
DWIDTH 10 0
BBX 10 20 0 -5
BITMAP
1E00
0000
3300
0000
1E00
0000
0000
0000
0000
0000
0000
0000
0000
0000
0000
0000
0000
0000
0000
0000
ENDCHAR
STARTCHAR char177
ENCODING 177
SWIDTH 480 0
DWIDTH 10 0
BBX 10 20 0 -5
BITMAP
0000
0000
0C00
0000
0C00
0000
7F80
0000
0C00
0000
0C00
0000
0000
0000
7F80
0000
0000
0000
0000
0000
ENDCHAR
STARTCHAR char178
ENCODING 178
SWIDTH 480 0
DWIDTH 10 0
BBX 10 20 0 -5
BITMAP
1E00
0000
3300
0000
0600
0000
1800
0000
3F00
0000
0000
0000
0000
0000
0000
0000
0000
0000
0000
0000
ENDCHAR
STARTCHAR char179
ENCODING 179
SWIDTH 480 0
DWIDTH 10 0
BBX 10 20 0 -5
BITMAP
1E00
0000
3300
0000
0600
0000
3300
0000
1E00
0000
0000
0000
0000
0000
0000
0000
0000
0000
0000
0000
ENDCHAR
STARTCHAR char180
ENCODING 180
SWIDTH 480 0
DWIDTH 10 0
BBX 10 20 0 -5
BITMAP
0600
0000
0C00
0000
1800
0000
0000
0000
0000
0000
0000
0000
0000
0000
0000
0000
0000
0000
0000
0000
ENDCHAR
STARTCHAR char181
ENCODING 181
SWIDTH 480 0
DWIDTH 10 0
BBX 10 20 0 -5
BITMAP
0000
0000
0000
0000
0000
0000
6180
0000
6180
0000
6180
0000
7380
0000
6D80
0000
6000
0000
6000
0000
ENDCHAR
STARTCHAR char182
ENCODING 182
SWIDTH 480 0
DWIDTH 10 0
BBX 10 20 0 -5
BITMAP
0000
0000
3F80
0000
7D80
0000
7D80
0000
3D80
0000
0D80
0000
0D80
0000
0D80
0000
0000
0000
0000
0000
ENDCHAR
STARTCHAR char183
ENCODING 183
SWIDTH 480 0
DWIDTH 10 0
BBX 10 20 0 -5
BITMAP
0000
0000
0000
0000
0000
0000
0000
0000
0C00
0000
0C00
0000
0000
0000
0000
0000
0000
0000
0000
0000
ENDCHAR
STARTCHAR char184
ENCODING 184
SWIDTH 480 0
DWIDTH 10 0
BBX 10 20 0 -5
BITMAP
0000
0000
0000
0000
0000
0000
0000
0000
0000
0000
0000
0000
0000
0000
1E00
0000
0600
0000
1800
0000
ENDCHAR
STARTCHAR char185
ENCODING 185
SWIDTH 480 0
DWIDTH 10 0
BBX 10 20 0 -5
BITMAP
0C00
0000
3C00
0000
0C00
0000
0C00
0000
3F00
0000
0000
0000
0000
0000
0000
0000
0000
0000
0000
0000
ENDCHAR
STARTCHAR char186
ENCODING 186
SWIDTH 480 0
DWIDTH 10 0
BBX 10 20 0 -5
BITMAP
1E00
0000
3300
0000
3300
0000
3300
0000
1E00
0000
0000
0000
3F00
0000
0000
0000
0000
0000
0000
0000
ENDCHAR
STARTCHAR char187
ENCODING 187
SWIDTH 480 0
DWIDTH 10 0
BBX 10 20 0 -5
BITMAP
0000
0000
0000
0000
0000
0000
6600
0000
3300
0000
1980
0000
3300
0000
6600
0000
0000
0000
0000
0000
ENDCHAR
STARTCHAR char188
ENCODING 188
SWIDTH 480 0
DWIDTH 10 0
BBX 10 20 0 -5
BITMAP
6000
0000
E180
0000
6300
0000
6600
0000
6C00
0000
1B80
0000
3780
0000
6D80
0000
CFC0
0000
0180
0000
ENDCHAR
STARTCHAR char189
ENCODING 189
SWIDTH 480 0
DWIDTH 10 0
BBX 10 20 0 -5
BITMAP
6000
0000
E180
0000
6300
0000
6600
0000
6C00
0000
1B80
0000
36C0
0000
6180
0000
C300
0000
07C0
0000
ENDCHAR
STARTCHAR char190
ENCODING 190
SWIDTH 480 0
DWIDTH 10 0
BBX 10 20 0 -5
BITMAP
E000
0000
3180
0000
6300
0000
3600
0000
EC00
0000
1B80
0000
3780
0000
6D80
0000
CFC0
0000
0180
0000
ENDCHAR
STARTCHAR char191
ENCODING 191
SWIDTH 480 0
DWIDTH 10 0
BBX 10 20 0 -5
BITMAP
0000
0000
0C00
0000
0C00
0000
0000
0000
0C00
0000
3800
0000
6180
0000
3F00
0000
0000
0000
0000
0000
ENDCHAR
STARTCHAR char192
ENCODING 192
SWIDTH 480 0
DWIDTH 10 0
BBX 10 20 0 -5
BITMAP
0000
0000
3000
1800
0C00
0000
0C00
1E00
3300
6180
6180
7F80
6180
6180
6180
0000
0000
0000
0000
0000
ENDCHAR
STARTCHAR char193
ENCODING 193
SWIDTH 480 0
DWIDTH 10 0
BBX 10 20 0 -5
BITMAP
0000
0000
0300
0600
0C00
0000
0C00
1E00
3300
6180
6180
7F80
6180
6180
6180
0000
0000
0000
0000
0000
ENDCHAR
STARTCHAR char194
ENCODING 194
SWIDTH 480 0
DWIDTH 10 0
BBX 10 20 0 -5
BITMAP
0000
0000
0C00
1E00
3300
0000
0C00
1E00
3300
6180
6180
7F80
6180
6180
6180
0000
0000
0000
0000
0000
ENDCHAR
STARTCHAR char195
ENCODING 195
SWIDTH 480 0
DWIDTH 10 0
BBX 10 20 0 -5
BITMAP
0000
0000
1900
3F00
2600
0000
0C00
1E00
3300
6180
6180
7F80
6180
6180
6180
0000
0000
0000
0000
0000
ENDCHAR
STARTCHAR char196
ENCODING 196
SWIDTH 480 0
DWIDTH 10 0
BBX 10 20 0 -5
BITMAP
0000
0000
3300
3300
0000
0000
0C00
1E00
3300
6180
6180
7F80
6180
6180
6180
0000
0000
0000
0000
0000
ENDCHAR
STARTCHAR char197
ENCODING 197
SWIDTH 480 0
DWIDTH 10 0
BBX 10 20 0 -5
BITMAP
0000
0000
0C00
1200
1200
0C00
0C00
1E00
3300
6180
6180
7F80
6180
6180
6180
0000
0000
0000
0000
0000
ENDCHAR
STARTCHAR char198
ENCODING 198
SWIDTH 480 0
DWIDTH 10 0
BBX 10 20 0 -5
BITMAP
0000
0000
0F80
1E00
3600
3600
6600
6600
7F80
6600
6600
6600
6600
6600
6780
0000
0000
0000
0000
0000
ENDCHAR
STARTCHAR char199
ENCODING 199
SWIDTH 480 0
DWIDTH 10 0
BBX 10 20 0 -5
BITMAP
0000
0000
1E00
3300
6180
6000
6000
6000
6000
6000
6000
6000
6180
3300
1E00
0C00
0400
1200
0C00
0000
ENDCHAR
STARTCHAR char200
ENCODING 200
SWIDTH 480 0
DWIDTH 10 0
BBX 10 20 0 -5
BITMAP
0000
0000
3000
1800
0C00
0000
7F80
6000
6000
6000
7E00
6000
6000
6000
7F80
0000
0000
0000
0000
0000
ENDCHAR
STARTCHAR char201
ENCODING 201
SWIDTH 480 0
DWIDTH 10 0
BBX 10 20 0 -5
BITMAP
0000
0000
0600
0C00
1800
0000
7F80
6000
6000
6000
7E00
6000
6000
6000
7F80
0000
0000
0000
0000
0000
ENDCHAR
STARTCHAR char202
ENCODING 202
SWIDTH 480 0
DWIDTH 10 0
BBX 10 20 0 -5
BITMAP
0000
0000
0C00
1E00
3300
0000
7F80
6000
6000
6000
7E00
6000
6000
6000
7F80
0000
0000
0000
0000
0000
ENDCHAR
STARTCHAR char203
ENCODING 203
SWIDTH 480 0
DWIDTH 10 0
BBX 10 20 0 -5
BITMAP
0000
0000
3300
3300
0000
0000
7F80
6000
6000
6000
7E00
6000
6000
6000
7F80
0000
0000
0000
0000
0000
ENDCHAR
STARTCHAR char204
ENCODING 204
SWIDTH 480 0
DWIDTH 10 0
BBX 10 20 0 -5
BITMAP
0000
0000
3000
1800
0C00
0000
3F00
0C00
0C00
0C00
0C00
0C00
0C00
0C00
3F00
0000
0000
0000
0000
0000
ENDCHAR
STARTCHAR char205
ENCODING 205
SWIDTH 480 0
DWIDTH 10 0
BBX 10 20 0 -5
BITMAP
0000
0000
0600
0C00
1800
0000
3F00
0C00
0C00
0C00
0C00
0C00
0C00
0C00
3F00
0000
0000
0000
0000
0000
ENDCHAR
STARTCHAR char206
ENCODING 206
SWIDTH 480 0
DWIDTH 10 0
BBX 10 20 0 -5
BITMAP
0000
0000
0C00
1E00
3300
0000
3F00
0C00
0C00
0C00
0C00
0C00
0C00
0C00
3F00
0000
0000
0000
0000
0000
ENDCHAR
STARTCHAR char207
ENCODING 207
SWIDTH 480 0
DWIDTH 10 0
BBX 10 20 0 -5
BITMAP
0000
0000
3300
3300
0000
0000
3F00
0C00
0C00
0C00
0C00
0C00
0C00
0C00
3F00
0000
0000
0000
0000
0000
ENDCHAR
STARTCHAR char208
ENCODING 208
SWIDTH 480 0
DWIDTH 10 0
BBX 10 20 0 -5
BITMAP
0000
0000
7E00
6300
6180
6180
6180
6180
F980
6180
6180
6180
6180
6300
7E00
0000
0000
0000
0000
0000
ENDCHAR
STARTCHAR char209
ENCODING 209
SWIDTH 480 0
DWIDTH 10 0
BBX 10 20 0 -5
BITMAP
0000
0000
1900
3F00
2600
0000
4180
6180
7180
7980
7D80
6F80
6780
6380
6180
0000
0000
0000
0000
0000
ENDCHAR
STARTCHAR char210
ENCODING 210
SWIDTH 480 0
DWIDTH 10 0
BBX 10 20 0 -5
BITMAP
0000
0000
3000
1800
0C00
0000
1E00
3300
6180
6180
6180
6180
6180
3300
1E00
0000
0000
0000
0000
0000
ENDCHAR
STARTCHAR char211
ENCODING 211
SWIDTH 480 0
DWIDTH 10 0
BBX 10 20 0 -5
BITMAP
0000
0000
0300
0600
0C00
0000
1E00
3300
6180
6180
6180
6180
6180
3300
1E00
0000
0000
0000
0000
0000
ENDCHAR
STARTCHAR char212
ENCODING 212
SWIDTH 480 0
DWIDTH 10 0
BBX 10 20 0 -5
BITMAP
0000
0000
0C00
1E00
3300
0000
1E00
3300
6180
6180
6180
6180
6180
3300
1E00
0000
0000
0000
0000
0000
ENDCHAR
STARTCHAR char213
ENCODING 213
SWIDTH 480 0
DWIDTH 10 0
BBX 10 20 0 -5
BITMAP
0000
0000
1900
3F00
2600
0000
1E00
3300
6180
6180
6180
6180
6180
3300
1E00
0000
0000
0000
0000
0000
ENDCHAR
STARTCHAR char214
ENCODING 214
SWIDTH 480 0
DWIDTH 10 0
BBX 10 20 0 -5
BITMAP
0000
0000
3300
3300
0000
0000
1E00
3300
6180
6180
6180
6180
6180
3300
1E00
0000
0000
0000
0000
0000
ENDCHAR
STARTCHAR char215
ENCODING 215
SWIDTH 480 0
DWIDTH 10 0
BBX 10 20 0 -5
BITMAP
0000
0000
0000
0000
0000
0000
0000
2080
3180
1B00
0E00
0E00
1B00
3180
2080
0000
0000
0000
0000
0000
ENDCHAR
STARTCHAR char216
ENCODING 216
SWIDTH 480 0
DWIDTH 10 0
BBX 10 20 0 -5
BITMAP
0000
0080
1F00
3300
6380
6380
6580
6580
6580
6980
6980
6980
7180
3300
3E00
4000
0000
0000
0000
0000
ENDCHAR
STARTCHAR char217
ENCODING 217
SWIDTH 480 0
DWIDTH 10 0
BBX 10 20 0 -5
BITMAP
0000
0000
3000
1800
0C00
0000
6180
6180
6180
6180
6180
6180
6180
3300
1E00
0000
0000
0000
0000
0000
ENDCHAR
STARTCHAR char218
ENCODING 218
SWIDTH 480 0
DWIDTH 10 0
BBX 10 20 0 -5
BITMAP
0000
0000
0300
0600
0C00
0000
6180
6180
6180
6180
6180
6180
6180
3300
1E00
0000
0000
0000
0000
0000
ENDCHAR
STARTCHAR char219
ENCODING 219
SWIDTH 480 0
DWIDTH 10 0
BBX 10 20 0 -5
BITMAP
0000
0000
0C00
1E00
3300
0000
6180
6180
6180
6180
6180
6180
6180
3380
1E00
0000
0000
0000
0000
0000
ENDCHAR
STARTCHAR char220
ENCODING 220
SWIDTH 480 0
DWIDTH 10 0
BBX 10 20 0 -5
BITMAP
0000
0000
3300
3300
0000
0000
6180
6180
6180
6180
6180
6180
6180
3300
1E00
0000
0000
0000
0000
0000
ENDCHAR
STARTCHAR char221
ENCODING 221
SWIDTH 480 0
DWIDTH 10 0
BBX 10 20 0 -5
BITMAP
0000
0000
0300
0600
0C00
0000
4080
6180
3300
1E00
0C00
0C00
0C00
0C00
0C00
0000
0000
0000
0000
0000
ENDCHAR
STARTCHAR char222
ENCODING 222
SWIDTH 480 0
DWIDTH 10 0
BBX 10 20 0 -5
BITMAP
0000
0000
0000
0000
3C00
1800
1F00
1980
1980
1980
1F00
1800
1800
1800
3C00
0000
0000
0000
0000
0000
ENDCHAR
STARTCHAR char223
ENCODING 223
SWIDTH 480 0
DWIDTH 10 0
BBX 10 20 0 -5
BITMAP
0000
0000
0000
1C00
3E00
7300
6300
6300
6600
6C00
6600
6300
6100
6300
6E00
0000
0000
0000
0000
0000
ENDCHAR
STARTCHAR char224
ENCODING 224
SWIDTH 480 0
DWIDTH 10 0
BBX 10 20 0 -5
BITMAP
0000
0000
3000
1800
0C00
0000
0000
3F00
6180
0180
3F80
6180
6180
6180
3E80
0000
0000
0000
0000
0000
ENDCHAR
STARTCHAR char225
ENCODING 225
SWIDTH 480 0
DWIDTH 10 0
BBX 10 20 0 -5
BITMAP
0000
0000
0600
0C00
1800
0000
0000
3F00
6180
0180
3F80
6180
6180
6180
3E80
0000
0000
0000
0000
0000
ENDCHAR
STARTCHAR char226
ENCODING 226
SWIDTH 480 0
DWIDTH 10 0
BBX 10 20 0 -5
BITMAP
0000
0000
0C00
1E00
3300
0000
0000
3F00
6180
0180
3F80
6180
6180
6180
3E80
0000
0000
0000
0000
0000
ENDCHAR
STARTCHAR char227
ENCODING 227
SWIDTH 480 0
DWIDTH 10 0
BBX 10 20 0 -5
BITMAP
0000
0000
1900
3F00
2600
0000
0000
3F00
6180
0180
3F80
6180
6180
6180
3E80
0000
0000
0000
0000
0000
ENDCHAR
STARTCHAR char228
ENCODING 228
SWIDTH 480 0
DWIDTH 10 0
BBX 10 20 0 -5
BITMAP
0000
0000
3300
3300
0000
0000
0000
3F00
6180
0180
3F80
6180
6180
6180
3E80
0000
0000
0000
0000
0000
ENDCHAR
STARTCHAR char229
ENCODING 229
SWIDTH 480 0
DWIDTH 10 0
BBX 10 20 0 -5
BITMAP
0000
0000
0000
0C00
1200
1200
0C00
3F00
6180
0180
3F80
6180
6180
6180
3E80
0000
0000
0000
0000
0000
ENDCHAR
STARTCHAR char230
ENCODING 230
SWIDTH 480 0
DWIDTH 10 0
BBX 10 20 0 -5
BITMAP
0000
0000
0000
0000
0000
0000
0000
3B00
4D80
0D80
0F00
3C00
6C00
6C80
3700
0000
0000
0000
0000
0000
ENDCHAR
STARTCHAR char231
ENCODING 231
SWIDTH 480 0
DWIDTH 10 0
BBX 10 20 0 -5
BITMAP
0000
0000
0000
0000
0000
0000
0000
1F00
3180
6000
6000
6000
6000
3180
1F00
0C00
0400
1200
0C00
0000
ENDCHAR
STARTCHAR char232
ENCODING 232
SWIDTH 480 0
DWIDTH 10 0
BBX 10 20 0 -5
BITMAP
0000
0000
3000
1800
0C00
0000
0000
1E00
3300
6180
7F80
6000
6000
3180
1F00
0000
0000
0000
0000
0000
ENDCHAR
STARTCHAR char233
ENCODING 233
SWIDTH 480 0
DWIDTH 10 0
BBX 10 20 0 -5
BITMAP
0000
0000
0600
0C00
1800
0000
0000
1E00
3300
6180
7F80
6000
6000
3180
1F00
0000
0000
0000
0000
0000
ENDCHAR
STARTCHAR char234
ENCODING 234
SWIDTH 480 0
DWIDTH 10 0
BBX 10 20 0 -5
BITMAP
0000
0000
0C00
1E00
3300
0000
0000
1E00
3300
6180
7F80
6000
6000
3180
1F00
0000
0000
0000
0000
0000
ENDCHAR
STARTCHAR char235
ENCODING 235
SWIDTH 480 0
DWIDTH 10 0
BBX 10 20 0 -5
BITMAP
0000
0000
3300
3300
0000
0000
0000
1E00
3300
6180
7F80
6000
6000
3180
1F00
0000
0000
0000
0000
0000
ENDCHAR
STARTCHAR char236
ENCODING 236
SWIDTH 480 0
DWIDTH 10 0
BBX 10 20 0 -5
BITMAP
0000
0000
3000
1800
0C00
0000
0000
3C00
0C00
0C00
0C00
0C00
0C00
0C00
7F80
0000
0000
0000
0000
0000
ENDCHAR
STARTCHAR char237
ENCODING 237
SWIDTH 480 0
DWIDTH 10 0
BBX 10 20 0 -5
BITMAP
0000
0000
0600
0C00
1800
0000
0000
3C00
0C00
0C00
0C00
0C00
0C00
0C00
7F80
0000
0000
0000
0000
0000
ENDCHAR
STARTCHAR char238
ENCODING 238
SWIDTH 480 0
DWIDTH 10 0
BBX 10 20 0 -5
BITMAP
0000
0000
0C00
1E00
3300
0000
0000
3C00
0C00
0C00
0C00
0C00
0C00
0C00
7F80
0000
0000
0000
0000
0000
ENDCHAR
STARTCHAR char239
ENCODING 239
SWIDTH 480 0
DWIDTH 10 0
BBX 10 20 0 -5
BITMAP
0000
0000
3300
3300
0000
0000
0000
3C00
0C00
0C00
0C00
0C00
0C00
0C00
7F80
0000
0000
0000
0000
0000
ENDCHAR
STARTCHAR char240
ENCODING 240
SWIDTH 480 0
DWIDTH 10 0
BBX 10 20 0 -5
BITMAP
0000
0000
4400
6C00
3800
3800
6C00
4600
1F00
3380
6180
6180
6180
3300
1E00
0000
0000
0000
0000
0000
ENDCHAR
STARTCHAR char241
ENCODING 241
SWIDTH 480 0
DWIDTH 10 0
BBX 10 20 0 -5
BITMAP
0000
0000
1900
3F00
2600
0000
0000
6E00
7300
6180
6180
6180
6180
6180
6180
0000
0000
0000
0000
0000
ENDCHAR
STARTCHAR char242
ENCODING 242
SWIDTH 480 0
DWIDTH 10 0
BBX 10 20 0 -5
BITMAP
0000
0000
3000
1800
0C00
0000
0000
1E00
3300
6180
6180
6180
6180
3300
1E00
0000
0000
0000
0000
0000
ENDCHAR
STARTCHAR char243
ENCODING 243
SWIDTH 480 0
DWIDTH 10 0
BBX 10 20 0 -5
BITMAP
0000
0000
0600
0C00
1800
0000
0000
1E00
3300
6180
6180
6180
6180
3300
1E00
0000
0000
0000
0000
0000
ENDCHAR
STARTCHAR char244
ENCODING 244
SWIDTH 480 0
DWIDTH 10 0
BBX 10 20 0 -5
BITMAP
0000
0000
0C00
1E00
3300
0000
0000
1E00
3300
6180
6180
6180
6180
3300
1E00
0000
0000
0000
0000
0000
ENDCHAR
STARTCHAR char245
ENCODING 245
SWIDTH 480 0
DWIDTH 10 0
BBX 10 20 0 -5
BITMAP
0000
0000
1900
3F00
2600
0000
0000
1E00
3300
6180
6180
6180
6180
3300
1E00
0000
0000
0000
0000
0000
ENDCHAR
STARTCHAR char246
ENCODING 246
SWIDTH 480 0
DWIDTH 10 0
BBX 10 20 0 -5
BITMAP
0000
0000
3300
3300
0000
0000
0000
1E00
3300
6180
6180
6180
6180
3300
1E00
0000
0000
0000
0000
0000
ENDCHAR
STARTCHAR char247
ENCODING 247
SWIDTH 480 0
DWIDTH 10 0
BBX 10 20 0 -5
BITMAP
0000
0000
0000
0000
0C00
0C00
0000
0000
7F80
7F80
0000
0000
0C00
0C00
0000
0000
0000
0000
0000
0000
ENDCHAR
STARTCHAR char248
ENCODING 248
SWIDTH 480 0
DWIDTH 10 0
BBX 10 20 0 -5
BITMAP
0000
0000
0000
0000
0000
0000
0080
1F00
3300
6580
6580
6980
6980
3300
3E00
4000
0000
0000
0000
0000
ENDCHAR
STARTCHAR char249
ENCODING 249
SWIDTH 480 0
DWIDTH 10 0
BBX 10 20 0 -5
BITMAP
0000
0000
3000
1800
0C00
0000
0000
6180
6180
6180
6180
6180
6180
3380
1D80
0000
0000
0000
0000
0000
ENDCHAR
STARTCHAR char250
ENCODING 250
SWIDTH 480 0
DWIDTH 10 0
BBX 10 20 0 -5
BITMAP
0000
0000
0600
0C00
1800
0000
0000
6180
6180
6180
6180
6180
6180
3380
1D80
0000
0000
0000
0000
0000
ENDCHAR
STARTCHAR char251
ENCODING 251
SWIDTH 480 0
DWIDTH 10 0
BBX 10 20 0 -5
BITMAP
0000
0000
0C00
1E00
3300
0000
0000
6180
6180
6180
6180
6180
6180
3380
1D80
0000
0000
0000
0000
0000
ENDCHAR
STARTCHAR char252
ENCODING 252
SWIDTH 480 0
DWIDTH 10 0
BBX 10 20 0 -5
BITMAP
0000
0000
3300
3300
0000
0000
0000
6180
6180
6180
6180
6180
6180
3380
1D80
0000
0000
0000
0000
0000
ENDCHAR
STARTCHAR char253
ENCODING 253
SWIDTH 480 0
DWIDTH 10 0
BBX 10 20 0 -5
BITMAP
0000
0000
0600
0C00
1800
0000
0000
0000
6180
6180
6180
6180
6180
3380
1D80
0180
6180
3300
1E00
0000
ENDCHAR
STARTCHAR char254
ENCODING 254
SWIDTH 480 0
DWIDTH 10 0
BBX 10 20 0 -5
BITMAP
0000
0000
0000
0000
0000
0000
0000
3800
1E00
1B00
1B00
1E00
1800
1800
3800
0000
0000
0000
0000
0000
ENDCHAR
STARTCHAR char255
ENCODING 255
SWIDTH 480 0
DWIDTH 10 0
BBX 10 20 0 -5
BITMAP
0000
0000
3300
3300
0000
0000
0000
0000
6180
6180
6180
6180
6180
3380
1D80
0180
6180
3300
1E00
0000
ENDCHAR
ENDFONT
